<svg xmlns="http://www.w3.org/2000/svg"
     viewBox="0 0 1254 1254"
     width="1254" height="1254">
  <path d="M 185 137 L 180 144 L 180 158 L 181 159 L 182 185 L 183 186 L 183 207 L 184 208 L 184 231 L 185 232 L 185 253 L 186 254 L 187 286 L 188 287 L 188 299 L 189 300 L 189 310 L 190 311 L 190 319 L 191 320 L 193 344 L 194 345 L 195 358 L 196 359 L 196 364 L 197 365 L 197 370 L 198 371 L 198 376 L 199 377 L 203 401 L 204 402 L 209 425 L 211 429 L 211 432 L 215 442 L 215 445 L 218 451 L 221 462 L 229 479 L 229 481 L 239 501 L 241 503 L 249 518 L 267 543 L 280 558 L 301 578 L 324 596 L 348 611 L 372 623 L 374 623 L 387 629 L 420 639 L 424 639 L 425 640 L 434 641 L 435 642 L 440 642 L 441 643 L 446 643 L 447 644 L 453 644 L 454 645 L 475 646 L 477 648 L 477 651 L 482 661 L 545 724 L 556 729 L 566 730 L 588 753 L 668 832 L 776 936 L 885 1037 L 922 1070 L 957 1099 L 979 1111 L 991 1115 L 1003 1116 L 1004 1117 L 1015 1117 L 1016 1116 L 1028 1115 L 1040 1111 L 1050 1106 L 1061 1098 L 1069 1090 L 1078 1078 L 1086 1060 L 1087 1052 L 1088 1051 L 1088 1045 L 1089 1044 L 1089 1033 L 1088 1032 L 1088 1026 L 1087 1025 L 1087 1021 L 1085 1017 L 1085 1014 L 1073 990 L 1041 947 L 995 890 L 913 794 L 820 690 L 756 622 L 721 587 L 723 580 L 723 567 L 720 558 L 717 553 L 657 493 L 646 487 L 639 485 L 628 484 L 627 483 L 626 468 L 625 467 L 625 461 L 624 460 L 624 454 L 623 453 L 621 438 L 620 437 L 619 429 L 616 421 L 615 414 L 611 402 L 609 399 L 608 394 L 596 369 L 590 359 L 578 342 L 568 330 L 548 310 L 521 289 L 503 278 L 483 268 L 481 268 L 468 262 L 459 259 L 456 259 L 452 257 L 449 257 L 445 255 L 433 253 L 428 251 L 424 251 L 423 250 L 418 250 L 417 249 L 412 249 L 411 248 L 400 247 L 399 246 L 393 246 L 392 245 L 386 245 L 385 244 L 379 244 L 378 243 L 372 243 L 371 242 L 365 242 L 364 241 L 359 241 L 358 240 L 353 240 L 352 239 L 338 237 L 304 227 L 285 218 L 283 218 L 281 216 L 269 210 L 253 199 L 230 177 L 217 160 L 209 147 L 206 140 L 199 135 L 196 135 L 195 134 L 189 135 Z M 702 605 L 704 605 L 759 662 L 830 739 L 854 767 L 879 794 L 980 912 L 1018 959 L 1042 991 L 1053 1008 L 1061 1027 L 1061 1032 L 1062 1033 L 1062 1044 L 1061 1045 L 1061 1049 L 1059 1056 L 1055 1064 L 1049 1072 L 1036 1083 L 1021 1089 L 1016 1089 L 1015 1090 L 1000 1089 L 990 1086 L 979 1081 L 955 1064 L 898 1014 L 800 923 L 703 830 L 590 719 L 588 716 L 607 695 L 660 642 Z M 636 513 L 641 516 L 642 518 L 694 569 L 695 574 L 640 624 L 587 677 L 565 701 L 562 701 L 560 700 L 504 643 L 503 641 L 504 632 L 545 587 L 588 544 L 620 514 L 626 512 Z M 213 199 L 216 203 L 232 218 L 254 234 L 278 247 L 280 247 L 285 250 L 295 253 L 298 255 L 310 259 L 313 259 L 317 261 L 329 263 L 334 265 L 338 265 L 339 266 L 343 266 L 344 267 L 362 269 L 363 270 L 369 270 L 370 271 L 376 271 L 377 272 L 383 272 L 384 273 L 390 273 L 391 274 L 397 274 L 398 275 L 404 275 L 405 276 L 410 276 L 416 278 L 426 279 L 427 280 L 438 282 L 442 284 L 445 284 L 452 287 L 455 287 L 471 294 L 473 294 L 498 307 L 513 317 L 528 329 L 550 351 L 565 371 L 580 399 L 588 422 L 588 425 L 593 442 L 595 457 L 596 458 L 600 496 L 544 550 L 501 595 L 480 619 L 479 618 L 466 618 L 465 617 L 451 616 L 450 615 L 435 613 L 434 612 L 423 610 L 419 608 L 416 608 L 393 600 L 362 585 L 340 571 L 312 548 L 289 523 L 272 499 L 256 470 L 256 468 L 253 463 L 253 461 L 250 456 L 247 446 L 245 443 L 238 421 L 238 418 L 236 414 L 236 411 L 231 394 L 227 370 L 226 369 L 226 364 L 225 363 L 225 358 L 223 351 L 223 345 L 222 344 L 221 330 L 220 329 L 218 301 L 217 300 L 217 289 L 216 288 L 216 276 L 215 275 L 214 241 L 213 240 L 213 219 L 212 218 L 212 200 Z M 275 434 L 275 439 L 289 461 L 306 482 L 332 508 L 363 532 L 384 545 L 412 559 L 414 559 L 427 565 L 462 575 L 477 576 L 480 574 L 481 572 L 481 566 L 477 562 L 448 553 L 445 551 L 428 545 L 423 542 L 421 542 L 394 528 L 368 512 L 345 495 L 325 478 L 299 452 L 284 433 L 279 431 Z M 495 395 L 493 397 L 493 402 L 500 410 L 511 426 L 525 453 L 535 480 L 535 483 L 537 487 L 541 505 L 545 510 L 550 511 L 552 510 L 555 506 L 555 496 L 554 495 L 554 490 L 553 489 L 551 477 L 541 450 L 530 430 L 517 412 L 501 396 Z M 272 314 L 271 316 L 271 321 L 274 326 L 274 328 L 297 370 L 323 407 L 350 438 L 376 463 L 414 493 L 460 522 L 471 527 L 477 531 L 479 531 L 485 535 L 491 536 L 495 531 L 494 527 L 491 524 L 488 523 L 466 508 L 418 472 L 391 449 L 356 415 L 338 395 L 313 364 L 295 339 L 292 333 L 282 319 L 281 316 L 277 313 Z M 368 308 L 366 311 L 366 313 L 369 318 L 378 327 L 400 355 L 458 442 L 478 470 L 506 506 L 512 512 L 517 512 L 519 510 L 519 504 L 499 472 L 492 459 L 476 435 L 475 432 L 471 427 L 470 424 L 467 421 L 466 418 L 438 377 L 413 345 L 388 319 L 373 307 Z"
        fill="#000000"
        fill-rule="evenodd"
        clip-rule="evenodd"/>
</svg>

