<svg xmlns="http://www.w3.org/2000/svg"
     viewBox="0 0 1254 1254"
     width="1254" height="1254">
  <path d="M 557 562 L 555 566 L 555 571 L 562 585 L 562 587 L 569 601 L 569 603 L 572 608 L 572 610 L 575 615 L 575 617 L 579 624 L 579 626 L 582 631 L 582 633 L 585 638 L 585 640 L 588 645 L 588 647 L 593 656 L 593 658 L 596 663 L 596 665 L 599 670 L 599 672 L 606 686 L 606 688 L 607 689 L 607 702 L 608 703 L 609 708 L 612 714 L 619 722 L 619 723 L 632 736 L 632 737 L 641 746 L 641 747 L 652 758 L 652 759 L 662 769 L 662 770 L 672 780 L 672 781 L 682 791 L 682 792 L 693 803 L 693 804 L 721 834 L 721 835 L 730 844 L 730 845 L 752 868 L 752 869 L 771 889 L 771 890 L 792 912 L 792 913 L 807 928 L 820 935 L 822 935 L 826 937 L 829 937 L 830 938 L 836 938 L 837 939 L 847 939 L 848 938 L 854 938 L 855 937 L 858 937 L 859 936 L 867 934 L 879 927 L 892 914 L 895 908 L 897 906 L 899 902 L 901 894 L 902 893 L 902 890 L 903 889 L 903 882 L 904 881 L 903 868 L 902 867 L 902 863 L 901 862 L 900 857 L 895 847 L 889 840 L 889 839 L 861 809 L 861 808 L 843 789 L 843 788 L 833 778 L 833 777 L 824 768 L 824 767 L 814 757 L 814 756 L 805 747 L 805 746 L 795 736 L 795 735 L 785 725 L 785 724 L 775 714 L 775 713 L 765 703 L 765 702 L 754 691 L 754 690 L 744 680 L 744 679 L 702 634 L 701 634 L 698 631 L 690 627 L 687 627 L 686 626 L 681 626 L 680 625 L 673 625 L 671 624 L 669 622 L 666 621 L 664 619 L 661 618 L 659 616 L 646 609 L 641 605 L 638 604 L 636 602 L 623 595 L 618 591 L 615 590 L 613 588 L 610 587 L 608 585 L 595 578 L 590 574 L 587 573 L 582 569 L 579 568 L 577 566 L 567 560 L 561 560 Z M 671 644 L 675 644 L 676 643 L 684 644 L 690 647 L 695 652 L 695 653 L 708 666 L 708 667 L 752 714 L 752 715 L 773 737 L 773 738 L 783 748 L 783 749 L 794 760 L 794 761 L 802 769 L 802 770 L 822 791 L 822 792 L 851 823 L 851 824 L 860 833 L 860 834 L 869 843 L 869 844 L 881 857 L 884 863 L 884 865 L 885 866 L 885 870 L 886 871 L 886 884 L 885 885 L 885 889 L 878 903 L 868 913 L 859 918 L 857 918 L 853 920 L 848 920 L 847 921 L 837 921 L 836 920 L 832 920 L 831 919 L 826 918 L 817 913 L 784 878 L 784 877 L 774 867 L 774 866 L 764 856 L 764 855 L 754 845 L 754 844 L 744 834 L 744 833 L 734 823 L 734 822 L 724 812 L 724 811 L 703 789 L 703 788 L 694 779 L 694 778 L 685 769 L 685 768 L 674 757 L 674 756 L 664 746 L 664 745 L 653 734 L 653 733 L 642 722 L 642 721 L 627 705 L 625 701 L 625 697 L 624 696 L 624 692 L 625 691 L 626 685 Z M 584 591 L 588 593 L 590 595 L 593 596 L 601 602 L 614 609 L 619 613 L 629 618 L 634 622 L 637 623 L 639 625 L 652 632 L 655 635 L 618 669 L 617 669 L 615 666 L 615 664 L 611 657 L 611 655 L 603 639 L 603 637 L 596 623 L 596 621 L 592 614 L 592 612 L 589 607 L 589 605 L 584 596 L 584 594 L 583 593 Z M 557 462 L 537 462 L 536 463 L 531 463 L 530 464 L 527 464 L 526 465 L 518 467 L 503 475 L 494 483 L 493 483 L 485 492 L 477 505 L 477 507 L 474 512 L 474 515 L 473 516 L 472 522 L 471 523 L 471 529 L 470 530 L 470 546 L 471 547 L 471 553 L 472 554 L 472 557 L 473 558 L 475 566 L 484 582 L 498 597 L 499 597 L 508 604 L 516 608 L 518 608 L 525 611 L 528 611 L 529 612 L 533 612 L 534 613 L 547 613 L 549 612 L 553 607 L 553 603 L 552 602 L 552 600 L 546 595 L 535 595 L 534 594 L 531 594 L 530 593 L 525 592 L 512 585 L 499 572 L 499 571 L 495 566 L 490 554 L 490 551 L 489 550 L 489 545 L 488 544 L 488 532 L 489 531 L 489 526 L 490 525 L 490 522 L 493 516 L 493 514 L 500 503 L 515 489 L 525 484 L 527 484 L 531 482 L 534 482 L 535 481 L 541 481 L 542 480 L 553 480 L 554 481 L 559 481 L 560 482 L 563 482 L 564 483 L 569 484 L 577 488 L 579 490 L 583 492 L 594 503 L 602 517 L 602 519 L 604 523 L 604 526 L 605 527 L 605 534 L 606 535 L 606 539 L 605 540 L 605 547 L 604 548 L 604 551 L 603 552 L 603 556 L 604 558 L 608 562 L 610 562 L 611 563 L 614 563 L 618 561 L 621 557 L 622 549 L 623 548 L 623 526 L 622 525 L 621 517 L 620 516 L 619 511 L 616 506 L 616 504 L 614 502 L 613 499 L 611 497 L 609 493 L 598 481 L 597 481 L 593 477 L 592 477 L 589 474 L 586 473 L 584 471 L 578 468 L 576 468 L 573 466 L 567 465 L 563 463 L 558 463 Z M 527 371 L 526 372 L 520 372 L 519 373 L 515 373 L 514 374 L 510 374 L 509 375 L 502 376 L 501 377 L 487 381 L 484 383 L 482 383 L 464 392 L 462 394 L 459 395 L 457 397 L 447 403 L 437 412 L 436 412 L 416 433 L 416 434 L 406 447 L 400 459 L 398 461 L 395 467 L 395 469 L 392 474 L 392 476 L 390 479 L 390 481 L 389 482 L 389 484 L 386 491 L 386 494 L 384 498 L 383 506 L 382 507 L 381 519 L 380 520 L 380 556 L 381 557 L 382 569 L 383 570 L 383 574 L 384 575 L 386 586 L 387 587 L 389 595 L 391 598 L 392 603 L 401 621 L 403 623 L 404 626 L 406 628 L 410 635 L 420 647 L 420 648 L 439 667 L 440 667 L 449 675 L 450 675 L 461 683 L 466 685 L 468 687 L 480 693 L 482 693 L 485 695 L 487 695 L 490 697 L 492 697 L 499 700 L 502 700 L 506 702 L 510 702 L 511 703 L 514 703 L 515 704 L 528 705 L 529 706 L 564 706 L 565 705 L 572 705 L 577 702 L 579 698 L 579 694 L 578 693 L 578 691 L 574 687 L 569 686 L 568 687 L 561 687 L 560 688 L 532 688 L 531 687 L 524 687 L 523 686 L 518 686 L 517 685 L 514 685 L 513 684 L 509 684 L 508 683 L 494 679 L 491 677 L 489 677 L 473 669 L 471 667 L 461 661 L 458 658 L 453 655 L 447 649 L 446 649 L 431 633 L 431 632 L 425 625 L 425 624 L 419 616 L 418 613 L 416 611 L 408 594 L 408 592 L 407 591 L 407 589 L 406 588 L 406 586 L 403 579 L 401 568 L 400 567 L 399 554 L 398 553 L 398 523 L 399 522 L 399 515 L 400 514 L 400 510 L 401 509 L 401 505 L 402 504 L 403 497 L 404 496 L 406 488 L 408 485 L 408 483 L 410 480 L 410 478 L 417 464 L 419 462 L 423 454 L 426 451 L 429 446 L 433 442 L 433 441 L 451 423 L 452 423 L 456 419 L 457 419 L 460 416 L 461 416 L 469 410 L 484 402 L 486 402 L 496 397 L 498 397 L 502 395 L 505 395 L 509 393 L 512 393 L 513 392 L 517 392 L 518 391 L 530 390 L 531 389 L 565 389 L 566 390 L 572 390 L 573 391 L 577 391 L 578 392 L 589 394 L 590 395 L 601 398 L 621 408 L 623 410 L 626 411 L 628 413 L 632 415 L 646 427 L 647 427 L 663 444 L 663 445 L 666 448 L 666 449 L 674 460 L 675 463 L 677 465 L 682 475 L 682 477 L 685 482 L 685 484 L 686 485 L 686 487 L 687 488 L 687 490 L 690 497 L 691 504 L 692 505 L 693 516 L 694 517 L 694 527 L 695 528 L 695 545 L 694 546 L 694 555 L 693 556 L 693 562 L 692 563 L 692 567 L 691 568 L 690 575 L 689 576 L 689 578 L 688 579 L 688 581 L 687 582 L 687 584 L 684 591 L 686 598 L 690 601 L 697 601 L 701 598 L 703 591 L 704 590 L 704 588 L 705 587 L 705 585 L 706 584 L 706 582 L 707 581 L 707 578 L 708 577 L 708 574 L 709 573 L 709 569 L 710 568 L 710 564 L 711 563 L 711 558 L 712 557 L 712 549 L 713 548 L 713 524 L 712 523 L 712 514 L 711 513 L 710 503 L 709 502 L 709 499 L 708 498 L 708 495 L 707 494 L 707 491 L 706 490 L 706 487 L 705 486 L 704 481 L 702 478 L 700 471 L 691 453 L 689 451 L 688 448 L 686 446 L 682 439 L 678 435 L 678 434 L 674 430 L 674 429 L 650 406 L 649 406 L 642 400 L 641 400 L 636 396 L 633 395 L 631 393 L 628 392 L 626 390 L 612 383 L 610 383 L 605 380 L 603 380 L 602 379 L 600 379 L 593 376 L 590 376 L 589 375 L 586 375 L 585 374 L 582 374 L 581 373 L 577 373 L 576 372 L 570 372 L 569 371 L 559 371 L 558 370 L 538 370 L 537 371 Z M 531 271 L 530 272 L 521 272 L 520 273 L 506 274 L 505 275 L 495 276 L 494 277 L 491 277 L 490 278 L 487 278 L 486 279 L 475 281 L 474 282 L 472 282 L 471 283 L 457 287 L 454 289 L 447 291 L 442 294 L 440 294 L 420 304 L 418 306 L 413 308 L 408 312 L 405 313 L 403 315 L 396 319 L 379 333 L 378 333 L 371 340 L 370 340 L 353 357 L 353 358 L 346 365 L 346 366 L 341 371 L 341 372 L 332 383 L 332 384 L 326 392 L 325 395 L 321 400 L 307 427 L 307 429 L 304 434 L 304 436 L 300 444 L 300 446 L 299 447 L 299 449 L 298 450 L 298 452 L 297 453 L 297 455 L 294 462 L 293 469 L 291 473 L 291 477 L 290 478 L 289 486 L 288 487 L 288 492 L 287 493 L 287 498 L 286 499 L 286 506 L 285 507 L 285 518 L 284 519 L 284 551 L 285 552 L 285 562 L 286 563 L 287 577 L 288 578 L 288 582 L 289 583 L 289 587 L 290 588 L 290 592 L 291 593 L 293 604 L 296 611 L 296 614 L 297 615 L 298 620 L 300 623 L 300 625 L 303 631 L 303 633 L 305 636 L 305 638 L 309 645 L 309 647 L 314 657 L 316 659 L 319 666 L 324 673 L 325 676 L 327 678 L 331 685 L 334 688 L 336 692 L 339 695 L 339 696 L 348 706 L 348 707 L 362 721 L 362 722 L 363 722 L 375 734 L 376 734 L 391 747 L 395 749 L 398 752 L 399 752 L 407 758 L 415 762 L 417 764 L 424 767 L 426 769 L 444 778 L 446 778 L 449 780 L 451 780 L 456 783 L 461 784 L 464 786 L 466 786 L 473 789 L 476 789 L 480 791 L 488 792 L 489 793 L 497 794 L 498 795 L 503 795 L 504 796 L 521 797 L 522 798 L 559 798 L 560 797 L 571 797 L 572 796 L 586 795 L 587 794 L 592 794 L 593 793 L 597 793 L 598 792 L 601 792 L 602 791 L 606 791 L 607 790 L 614 789 L 619 785 L 620 783 L 620 777 L 616 772 L 614 771 L 609 771 L 608 772 L 604 772 L 603 773 L 595 774 L 594 775 L 589 775 L 588 776 L 583 776 L 582 777 L 576 777 L 575 778 L 568 778 L 567 779 L 556 779 L 555 780 L 526 780 L 525 779 L 515 779 L 514 778 L 501 777 L 500 776 L 497 776 L 496 775 L 492 775 L 491 774 L 480 772 L 479 771 L 474 770 L 471 768 L 469 768 L 468 767 L 463 766 L 460 764 L 458 764 L 451 760 L 449 760 L 431 751 L 429 749 L 426 748 L 424 746 L 421 745 L 419 743 L 416 742 L 414 740 L 410 738 L 407 735 L 399 730 L 390 722 L 389 722 L 377 710 L 376 710 L 374 708 L 374 707 L 373 707 L 371 705 L 371 704 L 362 695 L 362 694 L 357 689 L 357 688 L 353 684 L 348 676 L 345 673 L 345 672 L 341 667 L 340 664 L 336 659 L 334 654 L 332 652 L 324 636 L 324 634 L 321 629 L 321 627 L 317 619 L 317 617 L 316 616 L 316 614 L 315 613 L 315 611 L 312 604 L 312 601 L 311 600 L 311 597 L 310 596 L 310 593 L 309 592 L 309 589 L 308 588 L 308 585 L 307 584 L 307 580 L 306 579 L 305 568 L 304 567 L 304 560 L 303 559 L 303 545 L 302 544 L 302 525 L 303 524 L 303 512 L 304 511 L 305 496 L 306 495 L 307 486 L 308 485 L 308 482 L 309 481 L 309 478 L 310 477 L 312 466 L 313 465 L 316 454 L 318 451 L 319 446 L 324 436 L 324 434 L 332 418 L 334 416 L 337 409 L 341 404 L 342 401 L 352 388 L 352 387 L 355 384 L 355 383 L 366 371 L 366 370 L 383 353 L 384 353 L 396 342 L 397 342 L 404 336 L 405 336 L 411 331 L 414 330 L 419 326 L 445 312 L 447 312 L 452 309 L 454 309 L 462 305 L 464 305 L 465 304 L 467 304 L 468 303 L 470 303 L 471 302 L 473 302 L 474 301 L 476 301 L 483 298 L 486 298 L 487 297 L 490 297 L 491 296 L 494 296 L 495 295 L 499 295 L 500 294 L 504 294 L 505 293 L 509 293 L 510 292 L 516 292 L 517 291 L 525 291 L 526 290 L 539 290 L 540 289 L 562 289 L 563 290 L 575 290 L 576 291 L 584 291 L 585 292 L 590 292 L 591 293 L 600 294 L 601 295 L 604 295 L 605 296 L 616 298 L 617 299 L 631 303 L 634 305 L 641 307 L 646 310 L 648 310 L 673 323 L 681 329 L 687 332 L 694 338 L 695 338 L 699 342 L 700 342 L 704 346 L 705 346 L 715 356 L 716 356 L 733 374 L 733 375 L 745 389 L 745 390 L 755 404 L 756 407 L 758 409 L 773 439 L 773 441 L 775 444 L 776 449 L 778 452 L 778 454 L 779 455 L 779 457 L 782 464 L 782 467 L 783 468 L 783 471 L 784 472 L 784 475 L 785 476 L 785 479 L 786 480 L 786 483 L 787 484 L 788 494 L 789 495 L 789 500 L 790 501 L 790 510 L 791 511 L 791 530 L 792 531 L 792 534 L 791 535 L 791 554 L 790 555 L 790 562 L 789 563 L 789 569 L 788 570 L 787 580 L 786 581 L 784 592 L 782 596 L 782 599 L 781 600 L 781 602 L 780 603 L 776 617 L 774 620 L 772 627 L 768 634 L 768 641 L 769 643 L 773 646 L 780 646 L 785 642 L 788 636 L 788 634 L 790 631 L 790 629 L 792 626 L 792 624 L 793 623 L 794 618 L 796 615 L 796 612 L 797 611 L 797 609 L 800 602 L 800 599 L 801 598 L 801 595 L 803 591 L 803 587 L 804 586 L 804 583 L 805 582 L 806 572 L 807 571 L 807 565 L 808 564 L 808 556 L 809 555 L 809 539 L 810 538 L 810 525 L 809 524 L 809 510 L 808 509 L 808 501 L 807 500 L 807 494 L 806 493 L 806 488 L 805 487 L 805 482 L 804 481 L 804 478 L 803 477 L 803 473 L 802 472 L 801 465 L 798 458 L 798 455 L 797 454 L 794 443 L 792 440 L 790 433 L 787 428 L 787 426 L 776 404 L 774 402 L 773 399 L 771 397 L 770 394 L 768 392 L 767 389 L 765 387 L 763 383 L 760 380 L 758 376 L 751 368 L 751 367 L 746 362 L 746 361 L 726 340 L 725 340 L 711 327 L 710 327 L 699 318 L 698 318 L 687 310 L 684 309 L 677 304 L 653 292 L 651 292 L 646 289 L 644 289 L 641 287 L 636 286 L 633 284 L 627 283 L 626 282 L 624 282 L 620 280 L 617 280 L 613 278 L 609 278 L 608 277 L 605 277 L 604 276 L 600 276 L 599 275 L 595 275 L 594 274 L 589 274 L 588 273 L 582 273 L 581 272 L 572 272 L 571 271 Z"
        fill="#000000"
        fill-rule="evenodd"
        clip-rule="evenodd"/>
</svg>

